<svg xmlns="http://www.w3.org/2000/svg" xmlns:xlink="http://www.w3.org/1999/xlink" version="1.1" width="256" height="256" viewBox="0 0 256 256" xml:space="preserve">

<defs>
</defs>
<g style="stroke: none; stroke-width: 0; stroke-dasharray: none; stroke-linecap: butt; stroke-linejoin: miter; stroke-miterlimit: 10; fill: none; fill-rule: nonzero; opacity: 1;" transform="translate(1.4065934065934016 1.4065934065934016) scale(2.81 2.81)" >
	<path d="M 18.509 47.273 c -1.255 5.034 -6.353 8.097 -11.388 6.842 c -5.032 -1.255 -8.096 -6.354 -6.84 -11.387 c 1.254 -5.034 6.353 -8.098 11.386 -6.843 C 16.701 37.14 19.764 42.239 18.509 47.273 L 18.509 47.273 z" style="stroke: none; stroke-width: 1; stroke-dasharray: none; stroke-linecap: butt; stroke-linejoin: miter; stroke-miterlimit: 10; fill: rgb(247,147,26); fill-rule: nonzero; opacity: 1;" transform=" matrix(1 0 0 1 0 0) " stroke-linecap="round" />
	<path d="M 13.538 43.661 c 0.187 -1.25 -0.765 -1.922 -2.067 -2.371 l 0.422 -1.694 l -1.031 -0.257 l -0.411 1.649 c -0.271 -0.068 -0.549 -0.131 -0.826 -0.194 l 0.414 -1.66 l -1.03 -0.257 l -0.423 1.693 c -0.224 -0.051 -0.445 -0.102 -0.658 -0.155 l 0.001 -0.005 l -1.422 -0.355 l -0.274 1.101 c 0 0 0.765 0.175 0.749 0.186 c 0.418 0.104 0.493 0.381 0.48 0.6 l -0.481 1.929 c 0.029 0.007 0.066 0.018 0.107 0.034 c -0.034 -0.009 -0.071 -0.018 -0.109 -0.027 l -0.674 2.703 c -0.051 0.127 -0.181 0.317 -0.472 0.245 c 0.01 0.015 -0.749 -0.187 -0.749 -0.187 l -0.512 1.18 l 1.342 0.334 c 0.25 0.063 0.494 0.128 0.735 0.19 l -0.427 1.713 l 1.03 0.257 l 0.423 -1.695 c 0.281 0.076 0.554 0.147 0.822 0.213 L 8.075 50.52 l 1.031 0.257 l 0.427 -1.71 c 1.758 0.333 3.08 0.198 3.636 -1.392 c 0.448 -1.28 -0.022 -2.019 -0.947 -2.5 C 12.895 45.02 13.403 44.577 13.538 43.661 L 13.538 43.661 z M 11.183 46.964 c -0.319 1.28 -2.474 0.588 -3.173 0.415 l 0.566 -2.269 C 9.274 45.284 11.515 45.629 11.183 46.964 L 11.183 46.964 z M 11.501 43.643 c -0.291 1.165 -2.085 0.573 -2.667 0.428 l 0.513 -2.058 C 9.93 42.157 11.804 42.428 11.501 43.643 z" style="stroke: none; stroke-width: 1; stroke-dasharray: none; stroke-linecap: butt; stroke-linejoin: miter; stroke-miterlimit: 10; fill: rgb(255,255,255); fill-rule: nonzero; opacity: 1;" transform=" matrix(1 0 0 1 0 0) " stroke-linecap="round" />
	<path d="M 27.535 41.289 c 0.762 0 1.42 0.137 1.974 0.405 c 0.556 0.271 1.014 0.635 1.382 1.094 c 0.363 0.461 0.633 1 0.807 1.617 c 0.173 0.619 0.26 1.285 0.26 1.998 c 0 1.095 -0.201 2.129 -0.605 3.104 c -0.405 0.976 -0.954 1.823 -1.653 2.545 c -0.698 0.721 -1.523 1.29 -2.474 1.71 c -0.949 0.42 -1.981 0.631 -3.09 0.631 c -0.143 0 -0.395 -0.004 -0.751 -0.011 c -0.356 -0.007 -0.765 -0.044 -1.223 -0.106 c -0.461 -0.064 -0.948 -0.159 -1.463 -0.287 c -0.514 -0.125 -1.003 -0.3 -1.463 -0.523 l 4.114 -17.288 l 3.685 -0.571 l -1.473 6.135 c 0.315 -0.142 0.633 -0.252 0.95 -0.332 C 26.831 41.33 27.171 41.289 27.535 41.289 L 27.535 41.289 z M 24.444 51.469 c 0.555 0 1.078 -0.137 1.569 -0.405 c 0.493 -0.268 0.918 -0.631 1.274 -1.082 c 0.356 -0.453 0.638 -0.964 0.844 -1.535 c 0.206 -0.571 0.309 -1.166 0.309 -1.785 c 0 -0.761 -0.127 -1.354 -0.381 -1.783 c -0.253 -0.427 -0.722 -0.642 -1.403 -0.642 c -0.223 0 -0.511 0.043 -0.867 0.119 c -0.358 0.081 -0.678 0.248 -0.965 0.501 l -1.569 6.515 c 0.095 0.017 0.178 0.033 0.25 0.048 c 0.07 0.016 0.147 0.028 0.224 0.036 c 0.081 0.009 0.174 0.014 0.287 0.014 C 24.13 51.469 24.27 51.469 24.444 51.469 L 24.444 51.469 z" style="stroke: none; stroke-width: 1; stroke-dasharray: none; stroke-linecap: butt; stroke-linejoin: miter; stroke-miterlimit: 10; fill: rgb(77,77,77); fill-rule: nonzero; opacity: 1;" transform=" matrix(1 0 0 1 0 0) " stroke-linecap="round" />
	<path d="M 35.781 54.062 h -3.52 l 2.972 -12.508 h 3.544 L 35.781 54.062 z M 37.493 40.03 c -0.491 0 -0.937 -0.146 -1.332 -0.439 c -0.398 -0.291 -0.596 -0.74 -0.596 -1.344 c 0 -0.332 0.068 -0.644 0.201 -0.938 c 0.136 -0.294 0.314 -0.546 0.536 -0.761 c 0.222 -0.213 0.48 -0.383 0.772 -0.512 c 0.294 -0.126 0.607 -0.189 0.941 -0.189 c 0.491 0 0.934 0.146 1.331 0.439 c 0.395 0.295 0.594 0.743 0.594 1.344 c 0 0.334 -0.067 0.647 -0.202 0.94 c -0.134 0.294 -0.312 0.546 -0.534 0.761 c -0.221 0.213 -0.48 0.383 -0.772 0.51 C 38.138 39.969 37.826 40.03 37.493 40.03 L 37.493 40.03 z" style="stroke: none; stroke-width: 1; stroke-dasharray: none; stroke-linecap: butt; stroke-linejoin: miter; stroke-miterlimit: 10; fill: rgb(77,77,77); fill-rule: nonzero; opacity: 1;" transform=" matrix(1 0 0 1 0 0) " stroke-linecap="round" />
	<path d="M 41.862 38.438 l 3.687 -0.571 l -0.905 3.687 h 3.948 l -0.713 2.9 h -3.924 l -1.045 4.375 c -0.096 0.365 -0.151 0.705 -0.166 1.022 c -0.017 0.318 0.023 0.591 0.118 0.821 c 0.095 0.23 0.265 0.408 0.511 0.534 c 0.245 0.128 0.597 0.192 1.058 0.192 c 0.38 0 0.75 -0.036 1.107 -0.108 c 0.356 -0.07 0.716 -0.169 1.081 -0.297 l 0.263 2.712 c -0.476 0.174 -0.991 0.324 -1.546 0.451 c -0.556 0.128 -1.214 0.19 -1.974 0.19 c -1.093 0 -1.941 -0.162 -2.545 -0.486 c -0.603 -0.326 -1.029 -0.77 -1.285 -1.334 c -0.252 -0.561 -0.364 -1.208 -0.333 -1.937 c 0.033 -0.731 0.143 -1.498 0.333 -2.307 L 41.862 38.438 L 41.862 38.438 z" style="stroke: none; stroke-width: 1; stroke-dasharray: none; stroke-linecap: butt; stroke-linejoin: miter; stroke-miterlimit: 10; fill: rgb(77,77,77); fill-rule: nonzero; opacity: 1;" transform=" matrix(1 0 0 1 0 0) " stroke-linecap="round" />
	<path d="M 48.436 49.067 c 0 -1.077 0.174 -2.093 0.523 -3.044 c 0.348 -0.952 0.849 -1.784 1.5 -2.499 c 0.648 -0.711 1.438 -1.274 2.367 -1.688 c 0.925 -0.411 1.961 -0.618 3.102 -0.618 c 0.714 0 1.352 0.068 1.914 0.203 c 0.564 0.137 1.074 0.313 1.535 0.534 l -1.214 2.76 c -0.317 -0.129 -0.646 -0.242 -0.987 -0.345 c -0.341 -0.105 -0.756 -0.155 -1.248 -0.155 c -1.175 0 -2.104 0.405 -2.795 1.212 c -0.689 0.808 -1.035 1.895 -1.035 3.259 c 0 0.808 0.174 1.462 0.524 1.962 c 0.348 0.5 0.992 0.749 1.926 0.749 c 0.461 0 0.906 -0.048 1.332 -0.142 c 0.429 -0.095 0.808 -0.215 1.142 -0.356 l 0.263 2.829 c -0.445 0.173 -0.936 0.329 -1.475 0.465 c -0.54 0.132 -1.182 0.2 -1.927 0.2 c -0.983 0 -1.816 -0.144 -2.497 -0.427 c -0.681 -0.288 -1.244 -0.67 -1.688 -1.154 c -0.446 -0.485 -0.766 -1.051 -0.964 -1.702 C 48.537 50.462 48.436 49.779 48.436 49.067 L 48.436 49.067 z" style="stroke: none; stroke-width: 1; stroke-dasharray: none; stroke-linecap: butt; stroke-linejoin: miter; stroke-miterlimit: 10; fill: rgb(77,77,77); fill-rule: nonzero; opacity: 1;" transform=" matrix(1 0 0 1 0 0) " stroke-linecap="round" />
	<path d="M 64.072 54.394 c -0.84 0 -1.57 -0.128 -2.189 -0.381 c -0.617 -0.253 -1.128 -0.609 -1.533 -1.07 c -0.405 -0.459 -0.708 -1.002 -0.916 -1.628 c -0.208 -0.626 -0.307 -1.319 -0.307 -2.079 c 0 -0.953 0.153 -1.905 0.462 -2.855 c 0.308 -0.952 0.764 -1.807 1.369 -2.568 c 0.6 -0.761 1.339 -1.384 2.21 -1.869 c 0.87 -0.482 1.871 -0.725 2.995 -0.725 c 0.825 0 1.551 0.128 2.178 0.382 c 0.625 0.253 1.139 0.611 1.546 1.07 c 0.402 0.461 0.708 1.002 0.913 1.629 c 0.207 0.625 0.309 1.32 0.309 2.08 c 0 0.95 -0.151 1.902 -0.45 2.855 c -0.3 0.948 -0.745 1.806 -1.332 2.568 c -0.586 0.76 -1.319 1.382 -2.199 1.866 C 66.249 54.151 65.23 54.394 64.072 54.394 L 64.072 54.394 z M 65.831 44.216 c -0.522 0 -0.983 0.152 -1.378 0.451 c -0.396 0.303 -0.729 0.683 -0.998 1.142 c -0.271 0.461 -0.472 0.964 -0.608 1.51 c -0.135 0.548 -0.201 1.065 -0.201 1.557 c 0 0.794 0.128 1.412 0.38 1.857 c 0.255 0.442 0.714 0.665 1.38 0.665 c 0.524 0 0.982 -0.15 1.38 -0.453 c 0.394 -0.3 0.727 -0.681 0.998 -1.141 c 0.27 -0.459 0.472 -0.963 0.608 -1.51 c 0.133 -0.546 0.201 -1.066 0.201 -1.557 c 0 -0.792 -0.127 -1.411 -0.381 -1.855 C 66.957 44.438 66.497 44.216 65.831 44.216 L 65.831 44.216 z" style="stroke: none; stroke-width: 1; stroke-dasharray: none; stroke-linecap: butt; stroke-linejoin: miter; stroke-miterlimit: 10; fill: rgb(77,77,77); fill-rule: nonzero; opacity: 1;" transform=" matrix(1 0 0 1 0 0) " stroke-linecap="round" />
	<path d="M 74.945 54.062 h -3.523 l 2.972 -12.508 h 3.546 L 74.945 54.062 z M 76.655 40.03 c -0.491 0 -0.936 -0.146 -1.331 -0.439 c -0.396 -0.291 -0.595 -0.74 -0.595 -1.344 c 0 -0.332 0.068 -0.644 0.203 -0.938 c 0.134 -0.294 0.313 -0.546 0.536 -0.761 c 0.221 -0.213 0.481 -0.383 0.773 -0.512 c 0.292 -0.126 0.605 -0.189 0.938 -0.189 c 0.492 0 0.937 0.146 1.333 0.439 c 0.396 0.295 0.596 0.743 0.596 1.344 c 0 0.334 -0.071 0.647 -0.204 0.94 c -0.133 0.294 -0.312 0.546 -0.534 0.761 c -0.223 0.213 -0.48 0.383 -0.772 0.51 C 77.302 39.969 76.989 40.03 76.655 40.03 z" style="stroke: none; stroke-width: 1; stroke-dasharray: none; stroke-linecap: butt; stroke-linejoin: miter; stroke-miterlimit: 10; fill: rgb(77,77,77); fill-rule: nonzero; opacity: 1;" transform=" matrix(1 0 0 1 0 0) " stroke-linecap="round" />
	<path d="M 80.477 42.123 c 0.267 -0.078 0.566 -0.172 0.89 -0.274 c 0.326 -0.102 0.689 -0.197 1.096 -0.283 c 0.402 -0.088 0.856 -0.16 1.355 -0.216 c 0.499 -0.057 1.067 -0.084 1.699 -0.084 c 1.856 0 3.136 0.541 3.842 1.618 c 0.706 1.078 0.828 2.553 0.37 4.423 l -1.619 6.754 h -3.543 l 1.569 -6.611 c 0.096 -0.413 0.171 -0.812 0.226 -1.202 c 0.056 -0.386 0.053 -0.727 -0.013 -1.022 c -0.063 -0.291 -0.21 -0.53 -0.439 -0.714 c -0.232 -0.182 -0.583 -0.273 -1.059 -0.273 c -0.459 0 -0.926 0.049 -1.402 0.144 l -2.307 9.678 h -3.544 L 80.477 42.123 z" style="stroke: none; stroke-width: 1; stroke-dasharray: none; stroke-linecap: butt; stroke-linejoin: miter; stroke-miterlimit: 10; fill: rgb(77,77,77); fill-rule: nonzero; opacity: 1;" transform=" matrix(1 0 0 1 0 0) " stroke-linecap="round" />
</g>
</svg>