<svg xmlns="http://www.w3.org/2000/svg" xmlns:xlink="http://www.w3.org/1999/xlink" version="1.1" width="256" height="256" viewBox="0 0 256 256" xml:space="preserve">

<defs>
</defs>
<g style="stroke: none; stroke-width: 0; stroke-dasharray: none; stroke-linecap: butt; stroke-linejoin: miter; stroke-miterlimit: 10; fill: none; fill-rule: nonzero; opacity: 1;" transform="translate(1.4065934065934016 1.4065934065934016) scale(2.81 2.81)" >
	<path d="M 17.245 56.661 c 6.374 0.03 12.192 -5.198 12.192 -11.559 c 0 -6.956 -5.818 -11.764 -12.192 -11.762 H 11.76 C 5.309 33.337 0 38.147 0 45.101 c 0 6.362 5.309 11.59 11.76 11.559 H 17.245 z" style="stroke: none; stroke-width: 1; stroke-dasharray: none; stroke-linecap: butt; stroke-linejoin: miter; stroke-miterlimit: 10; fill: rgb(0,121,190); fill-rule: nonzero; opacity: 1;" transform=" matrix(1 0 0 1 0 0) " stroke-linecap="round" />
	<path d="M 11.786 34.303 c -5.894 0.002 -10.67 4.779 -10.672 10.676 c 0.001 5.896 4.778 10.673 10.672 10.675 c 5.896 -0.002 10.673 -4.779 10.674 -10.675 C 22.458 39.083 17.681 34.305 11.786 34.303 z M 5.021 44.979 L 5.021 44.979 c 0.006 -2.881 1.805 -5.338 4.343 -6.315 v 12.628 C 6.826 50.317 5.027 47.861 5.021 44.979 z M 14.207 51.295 L 14.207 51.295 V 38.664 c 2.539 0.974 4.341 3.432 4.345 6.315 C 18.547 47.863 16.745 50.319 14.207 51.295 z" style="stroke: none; stroke-width: 1; stroke-dasharray: none; stroke-linecap: butt; stroke-linejoin: miter; stroke-miterlimit: 10; fill: rgb(255,255,255); fill-rule: nonzero; opacity: 1;" transform=" matrix(1 0 0 1 0 0) " stroke-linecap="round" />
	<path d="M 17.245 56.661 c 6.374 0.03 12.192 -5.198 12.192 -11.559 c 0 -6.956 -5.818 -11.764 -12.192 -11.762 H 11.76 C 5.309 33.337 0 38.147 0 45.101 c 0 6.362 5.309 11.59 11.76 11.559 H 17.245 z" style="stroke: none; stroke-width: 1; stroke-dasharray: none; stroke-linecap: butt; stroke-linejoin: miter; stroke-miterlimit: 10; fill: rgb(0,121,190); fill-rule: nonzero; opacity: 1;" transform=" matrix(1 0 0 1 0 0) " stroke-linecap="round" />
	<path d="M 11.786 34.303 c -5.894 0.002 -10.67 4.779 -10.672 10.676 c 0.001 5.896 4.778 10.673 10.672 10.675 c 5.896 -0.002 10.673 -4.779 10.674 -10.675 C 22.458 39.083 17.681 34.305 11.786 34.303 z M 5.021 44.979 L 5.021 44.979 c 0.006 -2.881 1.805 -5.338 4.343 -6.315 v 12.628 C 6.826 50.317 5.027 47.861 5.021 44.979 z M 14.207 51.295 L 14.207 51.295 V 38.664 c 2.539 0.974 4.341 3.432 4.345 6.315 C 18.547 47.863 16.745 50.319 14.207 51.295 z" style="stroke: none; stroke-width: 1; stroke-dasharray: none; stroke-linecap: butt; stroke-linejoin: miter; stroke-miterlimit: 10; fill: rgb(255,255,255); fill-rule: nonzero; opacity: 1;" transform=" matrix(1 0 0 1 0 0) " stroke-linecap="round" />
	<path d="M 35.47 45.557 c 4.341 0 5.052 -3.053 5.052 -4.268 c 0 -2.172 -1.729 -4.293 -4.904 -4.293 c -0.908 0 -1.607 0.024 -2.122 0.024 c -0.479 0 -0.969 0 -1.447 -0.024 v 0.319 c 0.552 0.012 1.127 -0.061 1.127 1.042 v 5.949 c -0.035 0.834 -0.391 0.859 -1.127 0.933 v 0.318 c 0.552 -0.012 1.092 -0.024 1.643 -0.024 C 34.268 45.532 34.845 45.557 35.47 45.557 z M 34.377 37.438 c 0.222 -0.013 0.453 -0.049 0.957 -0.049 c 2.366 0 3.838 1.656 3.838 3.948 c 0 1.828 -0.87 3.827 -3.519 3.827 c -0.601 0 -1.276 -0.11 -1.276 -1.055 V 37.438 z" style="stroke: none; stroke-width: 1; stroke-dasharray: none; stroke-linecap: butt; stroke-linejoin: miter; stroke-miterlimit: 10; fill: rgb(33,30,31); fill-rule: nonzero; opacity: 1;" transform=" matrix(1 0 0 1 0 0) " stroke-linecap="round" />
	<path d="M 42.264 38.063 c 0.33 0 0.601 -0.282 0.601 -0.613 c 0 -0.331 -0.283 -0.59 -0.601 -0.59 c -0.306 0 -0.601 0.283 -0.601 0.59 C 41.663 37.769 41.945 38.063 42.264 38.063 z" style="stroke: none; stroke-width: 1; stroke-dasharray: none; stroke-linecap: butt; stroke-linejoin: miter; stroke-miterlimit: 10; fill: rgb(33,30,31); fill-rule: nonzero; opacity: 1;" transform=" matrix(1 0 0 1 0 0) " stroke-linecap="round" />
	<path d="M 41.184 45.238 h -0.232 v 0.319 c 0.453 -0.012 0.895 -0.024 1.336 -0.024 c 0.44 0 0.87 0.024 1.287 0.024 v -0.319 h -0.208 c -0.343 0 -0.613 0 -0.613 -0.406 v -4.709 c 0 -0.099 -0.025 -0.173 -0.086 -0.173 c -0.062 0 -0.135 0.013 -0.221 0.062 c -0.048 0.037 -0.736 0.268 -1.312 0.441 v 0.197 c 0.454 0.244 0.638 0.319 0.638 0.858 v 3.323 C 41.773 45.238 41.527 45.238 41.184 45.238 z" style="stroke: none; stroke-width: 1; stroke-dasharray: none; stroke-linecap: butt; stroke-linejoin: miter; stroke-miterlimit: 10; fill: rgb(33,30,31); fill-rule: nonzero; opacity: 1;" transform=" matrix(1 0 0 1 0 0) " stroke-linecap="round" />
	<path d="M 50.088 45.238 h -0.221 c -0.344 0 -0.614 0 -0.614 -0.406 v -3.164 c 0 -0.956 -0.368 -1.717 -1.409 -1.717 c -0.823 0 -1.424 0.418 -2.124 0.92 v -0.798 c 0 -0.098 -0.036 -0.123 -0.073 -0.123 c -0.589 0.258 -1.091 0.418 -1.618 0.59 v 0.233 c 0.575 0.233 0.711 0.355 0.711 0.809 h 0 v 3.25 c 0 0.406 -0.245 0.406 -0.588 0.406 h -0.221 v 0.319 c 0.441 -0.012 0.883 -0.025 1.324 -0.025 c 0.441 0 0.871 0.025 1.3 0.025 v -0.319 h -0.22 c -0.344 0 -0.615 0 -0.615 -0.406 v -3.63 c 0.406 -0.27 1.032 -0.589 1.424 -0.589 c 0.7 0 1.127 0.343 1.127 1.043 v 3.176 c 0 0.406 -0.244 0.406 -0.588 0.406 h -0.22 v 0.319 c 0.441 -0.012 0.883 -0.024 1.325 -0.024 c 0.44 0 0.869 0.024 1.3 0.024 V 45.238 z" style="stroke: none; stroke-width: 1; stroke-dasharray: none; stroke-linecap: butt; stroke-linejoin: miter; stroke-miterlimit: 10; fill: rgb(33,30,31); fill-rule: nonzero; opacity: 1;" transform=" matrix(1 0 0 1 0 0) " stroke-linecap="round" />
	<path d="M 52.382 45.741 c 1.005 0 1.704 -0.638 2.268 -1.385 l -0.171 -0.172 c -0.453 0.453 -0.981 0.821 -1.657 0.821 c -0.98 0 -1.73 -0.957 -1.802 -2.121 c -0.026 -0.417 -0.026 -0.601 0 -0.712 h 3.445 l 0.111 -0.074 c 0.012 -0.075 0.012 -0.147 0.012 -0.222 c -0.012 -1.3 -1.079 -1.925 -2.073 -1.925 c -0.858 0 -2.477 0.712 -2.477 3.116 C 50.039 43.851 50.431 45.741 52.382 45.741 z M 52.466 40.344 c 0.687 0 1.067 0.503 1.067 1.129 c 0 0.147 -0.036 0.306 -0.342 0.306 h -2.135 C 51.204 40.895 51.719 40.344 52.466 40.344 z" style="stroke: none; stroke-width: 1; stroke-dasharray: none; stroke-linecap: butt; stroke-linejoin: miter; stroke-miterlimit: 10; fill: rgb(33,30,31); fill-rule: nonzero; opacity: 1;" transform=" matrix(1 0 0 1 0 0) " stroke-linecap="round" />
	<path d="M 58.047 45.557 v -0.319 H 57.36 c -0.344 0 -0.589 0 -0.589 -0.406 v -2.881 c 0 -0.736 0.686 -1.018 0.895 -1.018 c 0.429 0 0.429 0.295 0.81 0.295 c 0.343 0 0.576 -0.295 0.576 -0.627 c 0 -0.442 -0.392 -0.65 -0.699 -0.65 c -0.747 0 -1.263 0.786 -1.569 1.264 h -0.026 v -1.104 c 0 -0.123 -0.036 -0.16 -0.109 -0.16 c -0.112 0 -0.602 0.319 -1.498 0.7 v 0.183 c 0.185 0.098 0.638 0.172 0.638 0.552 v 3.446 c 0 0.406 -0.245 0.406 -0.588 0.406 h -0.331 v 0.319 c 0.441 -0.013 0.957 -0.025 1.459 -0.025 C 56.859 45.533 57.372 45.545 58.047 45.557 z" style="stroke: none; stroke-width: 1; stroke-dasharray: none; stroke-linecap: butt; stroke-linejoin: miter; stroke-miterlimit: 10; fill: rgb(33,30,31); fill-rule: nonzero; opacity: 1;" transform=" matrix(1 0 0 1 0 0) " stroke-linecap="round" />
	<path d="M 61.138 45.348 c -0.896 0 -1.386 -0.687 -1.546 -1.497 l -0.221 0.062 l 0.135 1.411 c 0.429 0.245 1.005 0.416 1.496 0.416 c 1.459 0 2.11 -0.859 2.11 -1.669 c 0 -1.925 -2.845 -1.483 -2.845 -2.919 c 0 -0.527 0.466 -0.809 0.956 -0.809 c 0.786 0 1.215 0.442 1.337 1.214 h 0.283 l -0.087 -1.25 c -0.478 -0.246 -1.005 -0.357 -1.397 -0.357 c -1.348 0 -1.901 0.883 -1.901 1.57 c 0 1.974 2.673 1.508 2.673 2.956 C 62.13 44.907 61.86 45.348 61.138 45.348 z" style="stroke: none; stroke-width: 1; stroke-dasharray: none; stroke-linecap: butt; stroke-linejoin: miter; stroke-miterlimit: 10; fill: rgb(33,30,31); fill-rule: nonzero; opacity: 1;" transform=" matrix(1 0 0 1 0 0) " stroke-linecap="round" />
	<path d="M 73.916 45.09 l 0.281 -1.791 l -0.281 -0.073 c -0.245 1.288 -1.252 2.122 -2.465 2.122 c -1.888 0 -3.655 -1.778 -3.655 -4.257 c 0 -2.943 2.048 -3.887 3.459 -3.887 c 1.373 0 2.391 0.577 2.624 2.011 h 0.306 l -0.122 -1.753 c -0.944 -0.331 -1.901 -0.651 -2.894 -0.651 c -2.403 0 -4.647 1.804 -4.647 4.318 c 0 2.76 1.814 4.612 4.683 4.612 C 72.015 45.741 73.401 45.41 73.916 45.09 z" style="stroke: none; stroke-width: 1; stroke-dasharray: none; stroke-linecap: butt; stroke-linejoin: miter; stroke-miterlimit: 10; fill: rgb(33,30,31); fill-rule: nonzero; opacity: 1;" transform=" matrix(1 0 0 1 0 0) " stroke-linecap="round" />
	<path d="M 77.251 45.557 v -0.319 h -0.207 c -0.344 0 -0.613 0 -0.613 -0.406 v -8.474 c 0 -0.099 -0.024 -0.173 -0.099 -0.173 c -0.036 0 -0.135 0.062 -0.269 0.135 c -0.258 0.148 -0.773 0.369 -1.263 0.528 v 0.196 c 0.466 0.135 0.651 0.159 0.651 0.957 v 6.831 c 0 0.406 -0.246 0.406 -0.59 0.406 h -0.232 h 0 v 0.319 c 0.454 -0.012 0.896 -0.025 1.337 -0.025 C 76.406 45.533 76.836 45.557 77.251 45.557 z" style="stroke: none; stroke-width: 1; stroke-dasharray: none; stroke-linecap: butt; stroke-linejoin: miter; stroke-miterlimit: 10; fill: rgb(33,30,31); fill-rule: nonzero; opacity: 1;" transform=" matrix(1 0 0 1 0 0) " stroke-linecap="round" />
	<path d="M 77.987 41.141 v 3.141 c 0 1.03 0.687 1.458 1.349 1.458 c 0.871 0 1.436 -0.429 2.171 -1.03 v 0.992 l 0.062 0.037 c 0.233 -0.073 1.239 -0.331 1.767 -0.379 v -0.258 c -0.16 0 -0.343 0.012 -0.491 0.012 c -0.208 0 -0.342 -0.012 -0.342 -0.234 h 0 v -4.525 c 0 -0.136 0 -0.221 -0.099 -0.221 c -0.122 0 -0.81 0.098 -1.912 0.172 v 0.221 c 0.44 0.123 1.029 0.258 1.029 0.502 v 3.301 c -0.515 0.428 -1.066 0.747 -1.483 0.747 c -1.066 0 -1.066 -1.055 -1.066 -1.423 v -3.164 c 0 -0.27 0 -0.355 -0.136 -0.355 c -0.16 0 -1.139 0.074 -1.581 0.086 v 0.233 C 77.938 40.516 77.987 40.822 77.987 41.141 z" style="stroke: none; stroke-width: 1; stroke-dasharray: none; stroke-linecap: butt; stroke-linejoin: miter; stroke-miterlimit: 10; fill: rgb(33,30,31); fill-rule: nonzero; opacity: 1;" transform=" matrix(1 0 0 1 0 0) " stroke-linecap="round" />
	<path d="M 83.961 38.002 v 5.274 c 0 0.748 -0.062 1.459 -0.171 2.183 l 0.257 0.134 l 0.367 -0.281 c 0.319 0.134 0.797 0.429 1.704 0.429 c 1.755 0 2.931 -1.607 2.931 -3.214 c 0 -1.336 -0.857 -2.576 -2.28 -2.576 c -0.675 0 -1.337 0.466 -1.827 0.883 v 0 h 0 v -4.476 c 0 -0.099 -0.024 -0.173 -0.098 -0.173 c -0.038 0 -0.136 0.062 -0.271 0.135 c -0.258 0.148 -0.771 0.369 -1.263 0.528 v 0.196 C 83.775 37.179 83.961 37.204 83.961 38.002 z M 84.942 41.191 c 0.331 -0.283 0.71 -0.577 1.165 -0.577 c 0.957 0 1.961 1.104 1.961 2.428 c 0 1.092 -0.552 2.381 -1.864 2.381 c -0.822 0 -1.263 -0.786 -1.263 -1.252 V 41.191 z" style="stroke: none; stroke-width: 1; stroke-dasharray: none; stroke-linecap: butt; stroke-linejoin: miter; stroke-miterlimit: 10; fill: rgb(33,30,31); fill-rule: nonzero; opacity: 1;" transform=" matrix(1 0 0 1 0 0) " stroke-linecap="round" />
	<path d="M 33.023 48.227 c -0.326 0 -0.726 -0.026 -0.988 -0.026 h -0.029 v 0.23 v 0.028 h 0.122 c 0.242 0.005 0.462 0.026 0.465 0.353 v 3.496 c -0.002 0.326 -0.223 0.346 -0.465 0.351 h -0.094 h -0.029 v 0.029 v 0.2 v 0.029 h 0.029 c 0.262 0 0.655 -0.027 0.981 -0.027 c 0.332 0 0.732 0.027 1.055 0.027 h 0.03 v -0.229 v -0.029 h -0.123 c -0.242 -0.006 -0.464 -0.025 -0.465 -0.351 v -3.496 c 0.001 -0.326 0.223 -0.348 0.465 -0.353 h 0.094 h 0.03 v -0.228 v -0.031 h -0.03 C 33.755 48.201 33.355 48.227 33.023 48.227 z" style="stroke: none; stroke-width: 1; stroke-dasharray: none; stroke-linecap: butt; stroke-linejoin: miter; stroke-miterlimit: 10; fill: rgb(33,30,31); fill-rule: nonzero; opacity: 1;" transform=" matrix(1 0 0 1 0 0) " stroke-linecap="round" />
	<path d="M 38.874 48.227 c -0.312 0 -0.619 -0.025 -0.934 -0.025 h -0.03 v 0.228 v 0.03 h 0.177 c 0.194 0.005 0.548 0.069 0.552 0.6 v 2.454 l -2.933 -3.302 c -0.225 -0.01 -0.418 0.016 -0.617 0.016 c -0.25 0 -0.512 -0.025 -0.767 -0.025 h -0.029 v 0.228 v 0.03 h 0.117 c 0.286 0.001 0.577 0.217 0.578 0.572 v 2.811 c -0.005 0.532 -0.131 0.815 -0.572 0.818 h -0.094 h -0.029 v 0.229 v 0.029 h 0.029 c 0.303 0 0.609 -0.027 0.908 -0.027 c 0.285 0 0.572 0.027 0.861 0.027 h 0.03 v -0.229 v -0.029 h -0.143 c -0.503 -0.006 -0.591 -0.171 -0.599 -0.751 v -2.675 l 3.386 3.774 l 0.275 0.01 v 0 h 0.035 l -0.006 -0.034 c -0.032 -0.202 -0.039 -0.435 -0.039 -0.669 v -3.037 c 0.008 -0.787 0.291 -0.811 0.566 -0.819 h 0.099 h 0.029 v -0.229 v -0.029 h -0.029 C 39.419 48.202 39.145 48.227 38.874 48.227 z" style="stroke: none; stroke-width: 1; stroke-dasharray: none; stroke-linecap: butt; stroke-linejoin: miter; stroke-miterlimit: 10; fill: rgb(33,30,31); fill-rule: nonzero; opacity: 1;" transform=" matrix(1 0 0 1 0 0) " stroke-linecap="round" />
	<path d="M 44.332 47.99 l -0.003 0.031 c -0.012 0.174 -0.147 0.177 -0.333 0.18 h -3.441 h -0.035 c -0.17 -0.003 -0.293 -0.004 -0.339 -0.172 l -0.005 -0.021 h -0.183 h -0.028 v 0.029 c 0 0.192 -0.013 0.377 -0.041 0.562 c -0.02 0.194 -0.054 0.38 -0.081 0.567 l -0.004 0.035 h 0.234 h 0.023 l 0.005 -0.023 c 0.109 -0.493 0.099 -0.577 0.592 -0.585 v -0.029 v 0 h 0 v 0.029 h 1.065 v 3.536 c -0.008 0.517 -0.156 0.522 -0.524 0.531 h -0.127 H 41.08 v 0.23 v 0.028 h 0.028 c 0.262 0 0.729 -0.027 1.129 -0.027 c 0.359 0 0.826 0.027 1.088 0.027 l 0.028 0 v -0.23 v -0.029 h -0.156 c -0.318 -0.006 -0.518 -0.041 -0.524 -0.545 v -3.522 h 1.065 c 0.422 0 0.448 0.363 0.466 0.614 l 0.002 0.039 l 0.236 -0.086 l 0.018 -0.007 v -0.021 c 0 -0.18 0 -0.36 0.013 -0.538 c 0.019 -0.179 0.046 -0.36 0.073 -0.538 l 0.004 -0.029 l -0.188 -0.03 L 44.332 47.99 z" style="stroke: none; stroke-width: 1; stroke-dasharray: none; stroke-linecap: butt; stroke-linejoin: miter; stroke-miterlimit: 10; fill: rgb(33,30,31); fill-rule: nonzero; opacity: 1;" transform=" matrix(1 0 0 1 0 0) " stroke-linecap="round" />
	<path d="M 48.32 51.746 l -0.007 0.027 c -0.201 0.75 -0.523 0.788 -1.327 0.793 c -0.435 -0.002 -0.785 0 -0.785 -0.405 v -1.527 l 0.771 0 c 0.443 0.005 0.447 0.228 0.492 0.635 l 0.002 0.031 l 0.232 -0.046 l 0.024 -0.005 l 0 -0.024 c -0.013 -0.254 -0.021 -0.507 -0.021 -0.76 c 0 -0.26 0.008 -0.52 0.021 -0.78 l 0 -0.03 h -0.23 h -0.026 l -0.002 0.026 c -0.045 0.36 -0.114 0.556 -0.498 0.56 H 46.2 l 0.001 -1.689 H 47.1 c 0.687 0.006 0.745 0.321 0.784 0.754 l 0.001 0.034 l 0.235 -0.061 l 0.022 -0.006 l -0.001 -0.024 c -0.013 -0.19 -0.02 -0.442 -0.02 -0.673 c 0 -0.126 0.002 -0.244 0.006 -0.345 l 0.001 -0.03 H 48.1 c -0.454 0 -1.147 0.025 -1.708 0.025 c -0.559 0 -1.254 -0.025 -1.661 -0.025 h -0.028 v 0.229 v 0.028 h 0.122 c 0.242 0.005 0.461 0.027 0.465 0.353 v 3.496 c -0.003 0.326 -0.223 0.347 -0.465 0.351 h -0.094 h -0.028 v 0.029 v 0.201 v 0.028 h 0.028 c 0.381 0 1.174 -0.027 1.775 -0.027 c 0.599 0 1.366 0.027 1.795 0.027 h 0.023 l 0.005 -0.024 c 0.06 -0.354 0.14 -0.706 0.226 -1.06 l 0.007 -0.028 l -0.214 -0.055 L 48.32 51.746 z" style="stroke: none; stroke-width: 1; stroke-dasharray: none; stroke-linecap: butt; stroke-linejoin: miter; stroke-miterlimit: 10; fill: rgb(33,30,31); fill-rule: nonzero; opacity: 1;" transform=" matrix(1 0 0 1 0 0) " stroke-linecap="round" />
	<path d="M 52.768 52.272 l -1.121 -1.679 c 0.515 -0.21 0.913 -0.586 0.913 -1.189 c -0.002 -0.969 -0.777 -1.201 -1.618 -1.203 c -0.355 0 -0.676 0.026 -1.075 0.026 c -0.406 0 -0.818 -0.026 -1.034 -0.026 h -0.029 v 0.23 v 0.029 h 0.149 c 0.207 0.007 0.439 0.004 0.444 0.478 v 3.391 c -0.001 0.225 -0.204 0.329 -0.444 0.331 h -0.12 h -0.029 v 0.229 v 0.029 h 0.029 c 0.335 0 0.648 -0.027 0.967 -0.027 c 0.379 0 0.766 0.027 1.148 0.027 h 0.03 v -0.229 V 52.66 h -0.149 c -0.309 -0.007 -0.51 -0.003 -0.517 -0.505 v -1.398 h 0.394 c 0.431 0.763 0.87 1.479 1.382 2.151 c 0.233 0.011 0.446 -0.016 0.649 -0.016 c 0.219 0 0.432 0.027 0.655 0.027 v 0 h 0.029 v -0.229 v -0.025 l -0.024 -0.004 C 53.071 52.618 52.955 52.549 52.768 52.272 z M 51.609 49.446 c -0.007 0.776 -0.339 1.005 -1 1.011 h -0.297 v -1.934 c 0.085 -0.007 0.17 -0.024 0.35 -0.024 C 51.243 48.501 51.605 48.863 51.609 49.446 z" style="stroke: none; stroke-width: 1; stroke-dasharray: none; stroke-linecap: butt; stroke-linejoin: miter; stroke-miterlimit: 10; fill: rgb(33,30,31); fill-rule: nonzero; opacity: 1;" transform=" matrix(1 0 0 1 0 0) " stroke-linecap="round" />
	<path d="M 58.991 48.459 v -0.228 v -0.03 h -0.029 c -0.275 0 -0.548 0.026 -0.82 0.026 c -0.312 0 -0.619 -0.026 -0.935 -0.026 h -0.029 v 0.23 v 0.028 h 0.176 c 0.194 0.003 0.549 0.068 0.551 0.599 v 2.455 l -2.933 -3.303 c -0.224 -0.009 -0.417 0.017 -0.614 0.017 c -0.252 0 -0.513 -0.026 -0.767 -0.026 h -0.03 v 0.23 v 0.028 h 0.117 c 0.285 0 0.576 0.216 0.576 0.571 v 2.809 c -0.004 0.534 -0.13 0.818 -0.571 0.82 h -0.093 h -0.03 v 0.23 v 0.028 h 0.03 c 0.3 0 0.609 -0.027 0.906 -0.027 c 0.286 0 0.572 0.027 0.861 0.027 h 0.029 v -0.229 v -0.029 h -0.141 c -0.503 -0.007 -0.591 -0.171 -0.599 -0.752 v -2.674 l 3.387 3.775 l 0.275 0.009 h 0.032 l -0.004 -0.032 c -0.034 -0.205 -0.04 -0.437 -0.04 -0.67 v -3.037 c 0.007 -0.787 0.291 -0.812 0.566 -0.819 h 0.099 H 58.991 z" style="stroke: none; stroke-width: 1; stroke-dasharray: none; stroke-linecap: butt; stroke-linejoin: miter; stroke-miterlimit: 10; fill: rgb(33,30,31); fill-rule: nonzero; opacity: 1;" transform=" matrix(1 0 0 1 0 0) " stroke-linecap="round" />
	<path d="M 63.139 52.41 c -0.087 -0.197 -0.167 -0.444 -0.245 -0.678 l -1.229 -3.49 c -0.02 -0.054 -0.041 -0.113 -0.06 -0.168 c -0.021 -0.035 -0.057 -0.039 -0.074 -0.039 c -0.027 0 -0.046 0.009 -0.064 0.015 c -0.129 0.081 -0.397 0.216 -0.606 0.286 c -0.058 0.266 -0.178 0.599 -0.266 0.846 l -1.068 3.063 c -0.096 0.272 -0.304 0.413 -0.552 0.414 h -0.04 h -0.029 v 0.231 v 0.03 l 0.031 -0.002 c 0.239 -0.013 0.48 -0.027 0.719 -0.027 c 0.266 0 0.539 0.014 0.806 0.027 l 0.03 0.002 v -0.231 v -0.03 h -0.103 c -0.221 0 -0.471 -0.04 -0.473 -0.203 c 0 -0.109 0.08 -0.285 0.147 -0.513 l 0.207 -0.674 h 1.472 l 0.254 0.755 c 0.074 0.212 0.134 0.396 0.132 0.471 c 0 0.128 -0.229 0.163 -0.384 0.163 h -0.074 h -0.029 v 0.231 v 0.03 l 0.03 -0.002 c 0.341 -0.013 0.674 -0.027 1.001 -0.027 c 0.318 0 0.618 0.014 0.918 0.027 l 0.031 0.002 v -0.231 v -0.03 h -0.068 C 63.339 52.658 63.216 52.588 63.139 52.41 z M 61.584 50.838 h -1.168 l 0.587 -1.788 L 61.584 50.838 z M 60.037 51.935 L 60.037 51.935 L 60.037 51.935 L 60.037 51.935 z" style="stroke: none; stroke-width: 1; stroke-dasharray: none; stroke-linecap: butt; stroke-linejoin: miter; stroke-miterlimit: 10; fill: rgb(33,30,31); fill-rule: nonzero; opacity: 1;" transform=" matrix(1 0 0 1 0 0) " stroke-linecap="round" />
	<path d="M 67.522 47.99 l -0.002 0.032 c -0.012 0.174 -0.146 0.177 -0.33 0.18 h -3.444 l -0.034 -0.001 c -0.171 -0.003 -0.292 -0.004 -0.339 -0.172 l -0.006 -0.021 h -0.182 h -0.029 v 0.029 c 0 0.192 -0.013 0.377 -0.04 0.563 c -0.019 0.193 -0.053 0.379 -0.081 0.567 l -0.004 0.033 h 0.234 h 0.023 l 0.005 -0.023 c 0.109 -0.493 0.098 -0.577 0.593 -0.585 v -0.029 c 0 0 0 0 0 0 v 0.029 h 1.064 l 0.001 3.536 c -0.009 0.517 -0.157 0.522 -0.525 0.531 H 64.3 h -0.03 v 0.23 v 0.028 h 0.03 c 0.261 0 0.729 -0.027 1.128 -0.027 c 0.358 0 0.826 0.027 1.087 0.027 l 0.029 0 v -0.229 v -0.029 h -0.156 c -0.318 -0.006 -0.517 -0.041 -0.524 -0.545 v -3.522 h 1.066 c 0.422 0 0.448 0.363 0.465 0.614 l 0.001 0.039 l 0.236 -0.086 l 0.019 -0.007 v -0.021 c 0 -0.18 0 -0.36 0.013 -0.538 c 0.02 -0.179 0.046 -0.359 0.073 -0.538 l 0.005 -0.029 l -0.189 -0.03 L 67.522 47.99 z" style="stroke: none; stroke-width: 1; stroke-dasharray: none; stroke-linecap: butt; stroke-linejoin: miter; stroke-miterlimit: 10; fill: rgb(33,30,31); fill-rule: nonzero; opacity: 1;" transform=" matrix(1 0 0 1 0 0) " stroke-linecap="round" />
	<path d="M 68.942 48.227 c -0.325 0 -0.726 -0.025 -0.987 -0.025 h -0.029 v 0.229 v 0.028 h 0.123 c 0.241 0.005 0.462 0.027 0.463 0.353 v 3.496 c -0.001 0.327 -0.222 0.347 -0.463 0.351 h -0.094 h -0.029 v 0.029 v 0.201 v 0.028 h 0.029 c 0.261 0 0.655 -0.027 0.981 -0.027 c 0.333 0 0.732 0.027 1.055 0.027 h 0.028 v -0.229 v -0.029 h -0.122 c -0.244 -0.004 -0.463 -0.025 -0.466 -0.351 v -3.496 c 0.003 -0.326 0.222 -0.348 0.466 -0.353 h 0.093 h 0.028 v -0.229 v -0.029 h -0.028 C 69.675 48.202 69.275 48.227 68.942 48.227 z" style="stroke: none; stroke-width: 1; stroke-dasharray: none; stroke-linecap: butt; stroke-linejoin: miter; stroke-miterlimit: 10; fill: rgb(33,30,31); fill-rule: nonzero; opacity: 1;" transform=" matrix(1 0 0 1 0 0) " stroke-linecap="round" />
	<polygon points="70.16,50.59 70.16,50.59 70.16,50.59 " style="stroke: none; stroke-width: 1; stroke-dasharray: none; stroke-linecap: butt; stroke-linejoin: miter; stroke-miterlimit: 10; fill: rgb(33,30,31); fill-rule: nonzero; opacity: 1;" transform="  matrix(1 0 0 1 0 0) "/>
	<path d="M 72.652 48.102 v 0.029 l 0 0 c 0 0 0 0 0 0 l 0 0 L 72.652 48.102 c -1.402 0.002 -2.488 1.088 -2.491 2.492 h 0 c 0.003 1.451 1.098 2.421 2.526 2.424 c 1.434 -0.003 2.549 -1.034 2.55 -2.585 C 75.234 48.993 74.085 48.103 72.652 48.102 z M 72.639 48.453 c 1.085 0.001 1.606 1.16 1.606 2.127 c -0.003 0.973 -0.223 2.085 -1.492 2.086 c -1.057 -0.003 -1.599 -1.119 -1.6 -2.308 C 71.156 49.47 71.494 48.455 72.639 48.453 z" style="stroke: none; stroke-width: 1; stroke-dasharray: none; stroke-linecap: butt; stroke-linejoin: miter; stroke-miterlimit: 10; fill: rgb(33,30,31); fill-rule: nonzero; opacity: 1;" transform=" matrix(1 0 0 1 0 0) " stroke-linecap="round" />
	<path d="M 80.775 48.459 v -0.229 v -0.029 h -0.029 c -0.277 0 -0.549 0.025 -0.823 0.025 c -0.31 0 -0.618 -0.025 -0.932 -0.025 h -0.03 v 0.229 v 0.028 h 0.175 c 0.195 0.005 0.551 0.069 0.553 0.6 v 2.454 l -2.932 -3.302 c -0.226 -0.01 -0.418 0.016 -0.616 0.016 c -0.252 0 -0.512 -0.026 -0.768 -0.026 h -0.028 v 0.229 v 0.028 h 0.115 c 0.287 0 0.578 0.216 0.579 0.571 v 2.811 c -0.005 0.532 -0.132 0.815 -0.572 0.817 h -0.094 h -0.028 v 0.23 v 0.029 h 0.028 c 0.303 0 0.609 -0.027 0.909 -0.027 c 0.285 0 0.571 0.027 0.861 0.027 h 0.029 v -0.229 v -0.03 h -0.144 c -0.501 -0.006 -0.59 -0.17 -0.597 -0.751 v -2.675 l 3.386 3.774 l 0.276 0.01 v 0 h 0.032 l -0.006 -0.032 c -0.032 -0.204 -0.037 -0.437 -0.037 -0.67 v -3.037 c 0.006 -0.786 0.29 -0.811 0.564 -0.819 h 0.101 H 80.775 z" style="stroke: none; stroke-width: 1; stroke-dasharray: none; stroke-linecap: butt; stroke-linejoin: miter; stroke-miterlimit: 10; fill: rgb(33,30,31); fill-rule: nonzero; opacity: 1;" transform=" matrix(1 0 0 1 0 0) " stroke-linecap="round" />
	<path d="M 84.922 52.411 c -0.086 -0.199 -0.167 -0.445 -0.246 -0.679 l -1.227 -3.49 c -0.022 -0.054 -0.042 -0.115 -0.062 -0.167 c -0.021 -0.037 -0.055 -0.041 -0.073 -0.039 c -0.027 0 -0.045 0.008 -0.063 0.014 c -0.13 0.081 -0.398 0.215 -0.607 0.287 c -0.059 0.265 -0.18 0.598 -0.265 0.845 l -1.068 3.063 c -0.097 0.271 -0.305 0.414 -0.554 0.415 h -0.038 H 80.69 v 0.229 v 0.031 l 0.029 -0.002 c 0.241 -0.012 0.48 -0.027 0.72 -0.027 c 0.266 0 0.539 0.015 0.806 0.027 l 0.03 0.002 v -0.231 v -0.029 h -0.102 c -0.221 0 -0.471 -0.041 -0.471 -0.205 c -0.001 -0.108 0.078 -0.283 0.145 -0.512 l 0.206 -0.674 h 1.473 l 0.254 0.755 c 0.074 0.214 0.135 0.396 0.133 0.471 c 0 0.128 -0.231 0.164 -0.386 0.164 h -0.073 h -0.029 v 0.229 v 0.031 l 0.03 -0.002 c 0.341 -0.012 0.675 -0.027 1 -0.027 c 0.319 0 0.619 0.015 0.919 0.027 l 0.031 0.002 v -0.231 v -0.029 h -0.069 C 85.122 52.658 85 52.588 84.922 52.411 z M 83.366 50.838 h -1.167 l 0.587 -1.788 L 83.366 50.838 z M 81.818 51.935 L 81.818 51.935 L 81.818 51.935 L 81.818 51.935 z" style="stroke: none; stroke-width: 1; stroke-dasharray: none; stroke-linecap: butt; stroke-linejoin: miter; stroke-miterlimit: 10; fill: rgb(33,30,31); fill-rule: nonzero; opacity: 1;" transform=" matrix(1 0 0 1 0 0) " stroke-linecap="round" />
	<path d="M 89.163 51.725 l -0.006 0.022 c -0.04 0.146 -0.099 0.329 -0.202 0.471 c -0.115 0.159 -0.349 0.316 -0.621 0.348 c -0.172 0.019 -0.342 0.026 -0.505 0.026 c -0.129 0 -0.252 -0.005 -0.37 -0.013 c -0.208 -0.029 -0.371 -0.096 -0.373 -0.345 v -3.444 c 0.005 -0.336 0.166 -0.324 0.425 -0.332 h 0.167 h 0.027 v -0.229 v -0.029 h -0.027 c -0.343 0 -0.676 0.025 -1.015 0.025 c -0.353 0 -0.7 -0.025 -1.055 -0.025 H 85.58 v 0.229 v 0.028 h 0.121 c 0.243 0.005 0.471 0.027 0.473 0.351 v 3.431 c -0.003 0.396 -0.231 0.412 -0.473 0.418 h -0.093 H 85.58 v 0.229 v 0.029 h 0.028 c 0.588 0 1.175 -0.027 1.763 -0.027 c 0.585 0 1.173 0.027 1.761 0.027 v 0 h 0 h 0.023 l 0.005 -0.023 c 0.081 -0.38 0.173 -0.753 0.248 -1.135 l 0.006 -0.035 h -0.229 H 89.163 z" style="stroke: none; stroke-width: 1; stroke-dasharray: none; stroke-linecap: butt; stroke-linejoin: miter; stroke-miterlimit: 10; fill: rgb(33,30,31); fill-rule: nonzero; opacity: 1;" transform=" matrix(1 0 0 1 0 0) " stroke-linecap="round" />
	<path d="M 89.298 48.041 c -0.402 0 -0.703 0.309 -0.703 0.705 c 0 0.394 0.301 0.701 0.703 0.701 C 89.7 49.447 90 49.14 90 48.746 C 90 48.35 89.7 48.041 89.298 48.041 z M 89.298 49.316 c -0.316 0 -0.558 -0.268 -0.558 -0.57 c 0 -0.303 0.242 -0.574 0.558 -0.574 c 0.318 0 0.556 0.271 0.556 0.574 C 89.853 49.047 89.612 49.316 89.298 49.316 z" style="stroke: none; stroke-width: 1; stroke-dasharray: none; stroke-linecap: butt; stroke-linejoin: miter; stroke-miterlimit: 10; fill: rgb(33,30,31); fill-rule: nonzero; opacity: 1;" transform=" matrix(1 0 0 1 0 0) " stroke-linecap="round" />
	<path d="M 89.497 48.928 l -0.115 -0.161 c 0.097 -0.03 0.166 -0.107 0.166 -0.212 c 0 -0.128 -0.113 -0.186 -0.237 -0.186 h -0.359 v 0.036 c 0.091 -0.004 0.099 0.021 0.099 0.094 v 0.52 c 0 0.054 -0.016 0.051 -0.102 0.063 v 0.035 h 0.34 v -0.035 c -0.087 -0.012 -0.103 -0.009 -0.103 -0.056 v -0.234 h 0.078 c 0.13 0.186 0.187 0.324 0.253 0.324 h 0.137 v -0.023 C 89.612 49.07 89.551 49.001 89.497 48.928 z M 89.267 48.746 h -0.083 v -0.331 h 0.078 c 0.072 0 0.138 0.039 0.138 0.151 C 89.401 48.677 89.358 48.746 89.267 48.746 z" style="stroke: none; stroke-width: 1; stroke-dasharray: none; stroke-linecap: butt; stroke-linejoin: miter; stroke-miterlimit: 10; fill: rgb(33,30,31); fill-rule: nonzero; opacity: 1;" transform=" matrix(1 0 0 1 0 0) " stroke-linecap="round" />
</g>
</svg>